<mxfile host="app.diagrams.net" modified="2023-12-04T14:54:08.536Z" agent="Mozilla/5.0 (Windows NT 10.0; Win64; x64) AppleWebKit/537.36 (KHTML, like Gecko) Chrome/119.0.0.0 Safari/537.36 Edg/119.0.0.0" etag="ZED1ECjlEwL6k3COPNvN" version="22.1.5" type="github">
  <diagram name="Page-1" id="c4acf3e9-155e-7222-9cf6-157b1a14988f">
    <mxGraphModel dx="1155" dy="696" grid="1" gridSize="10" guides="1" tooltips="1" connect="1" arrows="1" fold="1" page="1" pageScale="1" pageWidth="850" pageHeight="1100" background="none" math="0" shadow="0">
      <root>
        <mxCell id="0" />
        <mxCell id="1" parent="0" />
        <mxCell id="_poDO7g2qyBGz-Z9JkGC-1" value="顾客" style="rounded=0;whiteSpace=wrap;html=1;fontSize=16;" parent="1" vertex="1">
          <mxGeometry x="100" y="150" width="120" height="60" as="geometry" />
        </mxCell>
        <mxCell id="_poDO7g2qyBGz-Z9JkGC-3" value="售票员" style="rounded=0;whiteSpace=wrap;html=1;fontSize=16;" parent="1" vertex="1">
          <mxGeometry x="600" y="140" width="120" height="80" as="geometry" />
        </mxCell>
        <mxCell id="_poDO7g2qyBGz-Z9JkGC-4" value="售票系统" style="ellipse;whiteSpace=wrap;html=1;aspect=fixed;fontSize=16;" parent="1" vertex="1">
          <mxGeometry x="410" y="140" width="80" height="80" as="geometry" />
        </mxCell>
        <mxCell id="_poDO7g2qyBGz-Z9JkGC-7" value="个人信息 车次 时间" style="text;html=1;strokeColor=none;fillColor=none;align=center;verticalAlign=middle;whiteSpace=wrap;rounded=0;fontSize=16;" parent="1" vertex="1">
          <mxGeometry x="235" y="143" width="155" height="30" as="geometry" />
        </mxCell>
        <mxCell id="_poDO7g2qyBGz-Z9JkGC-10" value="取票单" style="text;html=1;strokeColor=none;fillColor=none;align=center;verticalAlign=middle;whiteSpace=wrap;rounded=0;fontSize=16;" parent="1" vertex="1">
          <mxGeometry x="235" y="165" width="155" height="30" as="geometry" />
        </mxCell>
        <mxCell id="_poDO7g2qyBGz-Z9JkGC-11" value="" style="endArrow=classic;html=1;rounded=0;fontSize=12;startSize=8;endSize=8;curved=1;entryX=0.021;entryY=0.379;entryDx=0;entryDy=0;entryPerimeter=0;" parent="1" target="_poDO7g2qyBGz-Z9JkGC-4" edge="1">
          <mxGeometry width="50" height="50" relative="1" as="geometry">
            <mxPoint x="220" y="170" as="sourcePoint" />
            <mxPoint x="390" y="200" as="targetPoint" />
          </mxGeometry>
        </mxCell>
        <mxCell id="_poDO7g2qyBGz-Z9JkGC-13" value="" style="endArrow=classic;html=1;rounded=0;fontSize=12;startSize=8;endSize=8;curved=1;exitX=0.013;exitY=0.629;exitDx=0;exitDy=0;exitPerimeter=0;" parent="1" source="_poDO7g2qyBGz-Z9JkGC-4" edge="1">
          <mxGeometry width="50" height="50" relative="1" as="geometry">
            <mxPoint x="370" y="190" as="sourcePoint" />
            <mxPoint x="220" y="190" as="targetPoint" />
          </mxGeometry>
        </mxCell>
        <mxCell id="_poDO7g2qyBGz-Z9JkGC-15" value="" style="curved=1;endArrow=classic;html=1;rounded=0;fontSize=12;startSize=8;endSize=8;entryX=0.75;entryY=1;entryDx=0;entryDy=0;exitX=0.292;exitY=0.96;exitDx=0;exitDy=0;exitPerimeter=0;" parent="1" source="_poDO7g2qyBGz-Z9JkGC-4" target="_poDO7g2qyBGz-Z9JkGC-1" edge="1">
          <mxGeometry width="50" height="50" relative="1" as="geometry">
            <mxPoint x="340" y="250" as="sourcePoint" />
            <mxPoint x="390" y="200" as="targetPoint" />
            <Array as="points">
              <mxPoint x="360" y="250" />
              <mxPoint x="240" y="250" />
            </Array>
          </mxGeometry>
        </mxCell>
        <mxCell id="_poDO7g2qyBGz-Z9JkGC-16" value="车票" style="text;html=1;strokeColor=none;fillColor=none;align=center;verticalAlign=middle;whiteSpace=wrap;rounded=0;fontSize=16;" parent="1" vertex="1">
          <mxGeometry x="270" y="220" width="60" height="30" as="geometry" />
        </mxCell>
        <mxCell id="_poDO7g2qyBGz-Z9JkGC-17" value="" style="curved=1;endArrow=classic;html=1;rounded=0;fontSize=12;startSize=8;endSize=8;entryX=0;entryY=0;entryDx=0;entryDy=0;exitX=0.75;exitY=0;exitDx=0;exitDy=0;" parent="1" source="_poDO7g2qyBGz-Z9JkGC-1" target="_poDO7g2qyBGz-Z9JkGC-4" edge="1">
          <mxGeometry width="50" height="50" relative="1" as="geometry">
            <mxPoint x="340" y="250" as="sourcePoint" />
            <mxPoint x="390" y="200" as="targetPoint" />
            <Array as="points">
              <mxPoint x="260" y="120" />
              <mxPoint x="360" y="120" />
            </Array>
          </mxGeometry>
        </mxCell>
        <mxCell id="_poDO7g2qyBGz-Z9JkGC-18" value="取票单" style="text;html=1;strokeColor=none;fillColor=none;align=center;verticalAlign=middle;whiteSpace=wrap;rounded=0;fontSize=16;" parent="1" vertex="1">
          <mxGeometry x="270" y="90" width="60" height="30" as="geometry" />
        </mxCell>
        <mxCell id="_poDO7g2qyBGz-Z9JkGC-25" value="" style="endArrow=classic;html=1;rounded=0;fontSize=12;startSize=8;endSize=8;curved=1;entryX=1;entryY=1;entryDx=0;entryDy=0;" parent="1" target="_poDO7g2qyBGz-Z9JkGC-1" edge="1">
          <mxGeometry width="50" height="50" relative="1" as="geometry">
            <mxPoint x="423" y="210" as="sourcePoint" />
            <mxPoint x="390" y="200" as="targetPoint" />
          </mxGeometry>
        </mxCell>
        <mxCell id="_poDO7g2qyBGz-Z9JkGC-26" value="不合格取票单" style="text;html=1;strokeColor=none;fillColor=none;align=center;verticalAlign=middle;whiteSpace=wrap;rounded=0;fontSize=16;" parent="1" vertex="1">
          <mxGeometry x="235" y="185" width="155" height="30" as="geometry" />
        </mxCell>
        <mxCell id="_poDO7g2qyBGz-Z9JkGC-27" value="订票" style="ellipse;whiteSpace=wrap;html=1;aspect=fixed;fontSize=16;" parent="1" vertex="1">
          <mxGeometry x="242" y="635" width="80" height="80" as="geometry" />
        </mxCell>
        <mxCell id="_poDO7g2qyBGz-Z9JkGC-29" value="个人信息 车次 时间" style="text;html=1;strokeColor=none;fillColor=none;align=center;verticalAlign=middle;whiteSpace=wrap;rounded=0;fontSize=16;" parent="1" vertex="1">
          <mxGeometry x="65" y="649" width="155" height="30" as="geometry" />
        </mxCell>
        <mxCell id="_poDO7g2qyBGz-Z9JkGC-30" value="" style="endArrow=classic;html=1;rounded=0;fontSize=12;startSize=8;endSize=8;curved=1;entryX=0.021;entryY=0.379;entryDx=0;entryDy=0;entryPerimeter=0;" parent="1" edge="1">
          <mxGeometry width="50" height="50" relative="1" as="geometry">
            <mxPoint x="50" y="676" as="sourcePoint" />
            <mxPoint x="242" y="676" as="targetPoint" />
          </mxGeometry>
        </mxCell>
        <mxCell id="_poDO7g2qyBGz-Z9JkGC-31" value="" style="endArrow=classic;html=1;rounded=0;fontSize=12;startSize=8;endSize=8;curved=1;exitX=0;exitY=0;exitDx=0;exitDy=0;" parent="1" source="_poDO7g2qyBGz-Z9JkGC-27" edge="1">
          <mxGeometry width="50" height="50" relative="1" as="geometry">
            <mxPoint x="255" y="644" as="sourcePoint" />
            <mxPoint x="52" y="647" as="targetPoint" />
          </mxGeometry>
        </mxCell>
        <mxCell id="_poDO7g2qyBGz-Z9JkGC-32" value="不合格取票单" style="text;html=1;strokeColor=none;fillColor=none;align=center;verticalAlign=middle;whiteSpace=wrap;rounded=0;fontSize=16;" parent="1" vertex="1">
          <mxGeometry x="67" y="620" width="155" height="30" as="geometry" />
        </mxCell>
        <mxCell id="_poDO7g2qyBGz-Z9JkGC-33" value="取票单" style="text;html=1;strokeColor=none;fillColor=none;align=center;verticalAlign=middle;whiteSpace=wrap;rounded=0;fontSize=16;" parent="1" vertex="1">
          <mxGeometry x="64.5" y="679" width="155" height="30" as="geometry" />
        </mxCell>
        <mxCell id="_poDO7g2qyBGz-Z9JkGC-34" value="" style="endArrow=classic;html=1;rounded=0;fontSize=12;startSize=8;endSize=8;curved=1;exitX=0;exitY=1;exitDx=0;exitDy=0;" parent="1" source="_poDO7g2qyBGz-Z9JkGC-27" edge="1">
          <mxGeometry width="50" height="50" relative="1" as="geometry">
            <mxPoint x="252" y="704" as="sourcePoint" />
            <mxPoint x="52" y="703" as="targetPoint" />
          </mxGeometry>
        </mxCell>
        <mxCell id="_poDO7g2qyBGz-Z9JkGC-39" value="" style="endArrow=none;html=1;rounded=0;fontSize=12;startSize=8;endSize=8;curved=1;" parent="1" edge="1">
          <mxGeometry width="50" height="50" relative="1" as="geometry">
            <mxPoint x="202" y="875" as="sourcePoint" />
            <mxPoint x="362" y="875" as="targetPoint" />
          </mxGeometry>
        </mxCell>
        <mxCell id="_poDO7g2qyBGz-Z9JkGC-43" value="" style="endArrow=classic;html=1;rounded=0;fontSize=12;startSize=8;endSize=8;curved=1;entryX=0.5;entryY=1;entryDx=0;entryDy=0;exitX=0.5;exitY=0;exitDx=0;exitDy=0;" parent="1" source="_poDO7g2qyBGz-Z9JkGC-38" target="_poDO7g2qyBGz-Z9JkGC-27" edge="1">
          <mxGeometry width="50" height="50" relative="1" as="geometry">
            <mxPoint x="412" y="905" as="sourcePoint" />
            <mxPoint x="462" y="855" as="targetPoint" />
          </mxGeometry>
        </mxCell>
        <mxCell id="_poDO7g2qyBGz-Z9JkGC-44" value="" style="group" parent="1" vertex="1" connectable="0">
          <mxGeometry x="202" y="845" width="160" height="30" as="geometry" />
        </mxCell>
        <mxCell id="_poDO7g2qyBGz-Z9JkGC-37" value="" style="endArrow=none;html=1;rounded=0;fontSize=12;startSize=8;endSize=8;curved=1;" parent="_poDO7g2qyBGz-Z9JkGC-44" edge="1">
          <mxGeometry width="50" height="50" relative="1" as="geometry">
            <mxPoint as="sourcePoint" />
            <mxPoint x="160" as="targetPoint" />
          </mxGeometry>
        </mxCell>
        <mxCell id="_poDO7g2qyBGz-Z9JkGC-38" value="个人信息数据库" style="text;html=1;strokeColor=none;fillColor=none;align=center;verticalAlign=middle;whiteSpace=wrap;rounded=0;fontSize=16;" parent="_poDO7g2qyBGz-Z9JkGC-44" vertex="1">
          <mxGeometry x="12.5" width="135" height="30" as="geometry" />
        </mxCell>
        <mxCell id="_poDO7g2qyBGz-Z9JkGC-45" value="" style="group" parent="1" vertex="1" connectable="0">
          <mxGeometry x="402" y="844.17" width="160" height="30" as="geometry" />
        </mxCell>
        <mxCell id="_poDO7g2qyBGz-Z9JkGC-42" value="" style="endArrow=none;html=1;rounded=0;fontSize=12;startSize=8;endSize=8;curved=1;" parent="_poDO7g2qyBGz-Z9JkGC-45" edge="1">
          <mxGeometry width="50" height="50" relative="1" as="geometry">
            <mxPoint y="30" as="sourcePoint" />
            <mxPoint x="160" y="30" as="targetPoint" />
          </mxGeometry>
        </mxCell>
        <mxCell id="_poDO7g2qyBGz-Z9JkGC-47" value="" style="group" parent="_poDO7g2qyBGz-Z9JkGC-45" vertex="1" connectable="0">
          <mxGeometry width="160" height="30" as="geometry" />
        </mxCell>
        <mxCell id="_poDO7g2qyBGz-Z9JkGC-40" value="" style="endArrow=none;html=1;rounded=0;fontSize=12;startSize=8;endSize=8;curved=1;" parent="_poDO7g2qyBGz-Z9JkGC-47" edge="1">
          <mxGeometry width="50" height="50" relative="1" as="geometry">
            <mxPoint as="sourcePoint" />
            <mxPoint x="160" as="targetPoint" />
          </mxGeometry>
        </mxCell>
        <mxCell id="_poDO7g2qyBGz-Z9JkGC-41" value="订票信息表" style="text;html=1;strokeColor=none;fillColor=none;align=center;verticalAlign=middle;whiteSpace=wrap;rounded=0;fontSize=16;" parent="_poDO7g2qyBGz-Z9JkGC-47" vertex="1">
          <mxGeometry x="18" width="130" height="30" as="geometry" />
        </mxCell>
        <mxCell id="_poDO7g2qyBGz-Z9JkGC-50" value="出票" style="ellipse;whiteSpace=wrap;html=1;aspect=fixed;fontSize=16;" parent="1" vertex="1">
          <mxGeometry x="490" y="635" width="80" height="80" as="geometry" />
        </mxCell>
        <mxCell id="_poDO7g2qyBGz-Z9JkGC-51" value="" style="endArrow=classic;html=1;rounded=0;fontSize=12;startSize=8;endSize=8;curved=1;entryX=0.978;entryY=0.322;entryDx=0;entryDy=0;entryPerimeter=0;" parent="1" target="_poDO7g2qyBGz-Z9JkGC-50" edge="1">
          <mxGeometry width="50" height="50" relative="1" as="geometry">
            <mxPoint x="760" y="660.5" as="sourcePoint" />
            <mxPoint x="580" y="661.5" as="targetPoint" />
          </mxGeometry>
        </mxCell>
        <mxCell id="_poDO7g2qyBGz-Z9JkGC-52" value="取票单" style="text;html=1;strokeColor=none;fillColor=none;align=center;verticalAlign=middle;whiteSpace=wrap;rounded=0;fontSize=16;" parent="1" vertex="1">
          <mxGeometry x="590" y="635" width="155" height="30" as="geometry" />
        </mxCell>
        <mxCell id="_poDO7g2qyBGz-Z9JkGC-53" value="" style="endArrow=classic;html=1;rounded=0;fontSize=12;startSize=8;endSize=8;curved=1;entryX=0.5;entryY=1;entryDx=0;entryDy=0;exitX=0.847;exitY=0.02;exitDx=0;exitDy=0;exitPerimeter=0;" parent="1" source="_poDO7g2qyBGz-Z9JkGC-41" target="_poDO7g2qyBGz-Z9JkGC-50" edge="1">
          <mxGeometry width="50" height="50" relative="1" as="geometry">
            <mxPoint x="292" y="855" as="sourcePoint" />
            <mxPoint x="292" y="725" as="targetPoint" />
          </mxGeometry>
        </mxCell>
        <mxCell id="_poDO7g2qyBGz-Z9JkGC-55" value="" style="endArrow=classic;html=1;rounded=0;fontSize=12;startSize=8;endSize=8;curved=1;exitX=0.914;exitY=0.746;exitDx=0;exitDy=0;exitPerimeter=0;" parent="1" source="_poDO7g2qyBGz-Z9JkGC-50" edge="1">
          <mxGeometry width="50" height="50" relative="1" as="geometry">
            <mxPoint x="770" y="670.5" as="sourcePoint" />
            <mxPoint x="760" y="695" as="targetPoint" />
          </mxGeometry>
        </mxCell>
        <mxCell id="_poDO7g2qyBGz-Z9JkGC-56" value="车票" style="text;html=1;strokeColor=none;fillColor=none;align=center;verticalAlign=middle;whiteSpace=wrap;rounded=0;fontSize=16;" parent="1" vertex="1">
          <mxGeometry x="590" y="665" width="155" height="30" as="geometry" />
        </mxCell>
        <mxCell id="_poDO7g2qyBGz-Z9JkGC-58" value="" style="group" parent="1" vertex="1" connectable="0">
          <mxGeometry x="322" y="535" width="160" height="30" as="geometry" />
        </mxCell>
        <mxCell id="_poDO7g2qyBGz-Z9JkGC-59" value="" style="endArrow=none;html=1;rounded=0;fontSize=12;startSize=8;endSize=8;curved=1;" parent="_poDO7g2qyBGz-Z9JkGC-58" edge="1">
          <mxGeometry width="50" height="50" relative="1" as="geometry">
            <mxPoint y="30" as="sourcePoint" />
            <mxPoint x="160" y="30" as="targetPoint" />
          </mxGeometry>
        </mxCell>
        <mxCell id="_poDO7g2qyBGz-Z9JkGC-60" value="" style="group" parent="_poDO7g2qyBGz-Z9JkGC-58" vertex="1" connectable="0">
          <mxGeometry width="160" height="30" as="geometry" />
        </mxCell>
        <mxCell id="_poDO7g2qyBGz-Z9JkGC-61" value="" style="endArrow=none;html=1;rounded=0;fontSize=12;startSize=8;endSize=8;curved=1;" parent="_poDO7g2qyBGz-Z9JkGC-60" edge="1">
          <mxGeometry width="50" height="50" relative="1" as="geometry">
            <mxPoint as="sourcePoint" />
            <mxPoint x="160" as="targetPoint" />
          </mxGeometry>
        </mxCell>
        <mxCell id="_poDO7g2qyBGz-Z9JkGC-62" value="车票信息数据库" style="text;html=1;strokeColor=none;fillColor=none;align=center;verticalAlign=middle;whiteSpace=wrap;rounded=0;fontSize=16;" parent="_poDO7g2qyBGz-Z9JkGC-60" vertex="1">
          <mxGeometry x="18" width="130" height="30" as="geometry" />
        </mxCell>
        <mxCell id="_poDO7g2qyBGz-Z9JkGC-63" value="" style="endArrow=classic;html=1;rounded=0;fontSize=12;startSize=8;endSize=8;curved=1;exitX=0.25;exitY=1;exitDx=0;exitDy=0;entryX=0.744;entryY=0.077;entryDx=0;entryDy=0;entryPerimeter=0;" parent="1" source="_poDO7g2qyBGz-Z9JkGC-62" target="_poDO7g2qyBGz-Z9JkGC-27" edge="1">
          <mxGeometry width="50" height="50" relative="1" as="geometry">
            <mxPoint x="350" y="680" as="sourcePoint" />
            <mxPoint x="350" y="590" as="targetPoint" />
          </mxGeometry>
        </mxCell>
        <mxCell id="_poDO7g2qyBGz-Z9JkGC-65" value="" style="endArrow=classic;html=1;rounded=0;fontSize=12;startSize=8;endSize=8;curved=1;exitX=0.75;exitY=1;exitDx=0;exitDy=0;entryX=0;entryY=0;entryDx=0;entryDy=0;" parent="1" source="_poDO7g2qyBGz-Z9JkGC-62" target="_poDO7g2qyBGz-Z9JkGC-50" edge="1">
          <mxGeometry width="50" height="50" relative="1" as="geometry">
            <mxPoint x="381" y="550" as="sourcePoint" />
            <mxPoint x="312" y="651" as="targetPoint" />
          </mxGeometry>
        </mxCell>
        <mxCell id="miqpClpsg9ADyVxYDXDO-1" value="" style="endArrow=classic;html=1;rounded=0;fontSize=12;startSize=8;endSize=8;curved=1;exitX=1;exitY=1;exitDx=0;exitDy=0;entryX=0.25;entryY=0;entryDx=0;entryDy=0;" edge="1" parent="1" source="_poDO7g2qyBGz-Z9JkGC-27" target="_poDO7g2qyBGz-Z9JkGC-41">
          <mxGeometry width="50" height="50" relative="1" as="geometry">
            <mxPoint x="410" y="710" as="sourcePoint" />
            <mxPoint x="460" y="660" as="targetPoint" />
          </mxGeometry>
        </mxCell>
        <mxCell id="miqpClpsg9ADyVxYDXDO-3" value="" style="curved=1;endArrow=classic;html=1;rounded=0;fontSize=12;startSize=8;endSize=8;exitX=0.5;exitY=1;exitDx=0;exitDy=0;entryX=0.5;entryY=1;entryDx=0;entryDy=0;" edge="1" parent="1" source="_poDO7g2qyBGz-Z9JkGC-4" target="_poDO7g2qyBGz-Z9JkGC-1">
          <mxGeometry width="50" height="50" relative="1" as="geometry">
            <mxPoint x="510" y="330" as="sourcePoint" />
            <mxPoint x="560" y="280" as="targetPoint" />
            <Array as="points">
              <mxPoint x="400" y="280" />
              <mxPoint x="210" y="280" />
            </Array>
          </mxGeometry>
        </mxCell>
        <mxCell id="miqpClpsg9ADyVxYDXDO-4" value="无余票通知" style="text;html=1;strokeColor=none;fillColor=none;align=center;verticalAlign=middle;whiteSpace=wrap;rounded=0;fontSize=16;" vertex="1" parent="1">
          <mxGeometry x="222.5" y="250" width="155" height="30" as="geometry" />
        </mxCell>
        <mxCell id="miqpClpsg9ADyVxYDXDO-6" value="" style="endArrow=classic;html=1;rounded=0;fontSize=12;startSize=8;endSize=8;curved=1;exitX=0;exitY=0.25;exitDx=0;exitDy=0;entryX=0.929;entryY=0.249;entryDx=0;entryDy=0;entryPerimeter=0;" edge="1" parent="1" source="_poDO7g2qyBGz-Z9JkGC-3" target="_poDO7g2qyBGz-Z9JkGC-4">
          <mxGeometry width="50" height="50" relative="1" as="geometry">
            <mxPoint x="510" y="330" as="sourcePoint" />
            <mxPoint x="490" y="160" as="targetPoint" />
          </mxGeometry>
        </mxCell>
        <mxCell id="miqpClpsg9ADyVxYDXDO-7" value="请求查询" style="text;html=1;strokeColor=none;fillColor=none;align=center;verticalAlign=middle;whiteSpace=wrap;rounded=0;fontSize=16;" vertex="1" parent="1">
          <mxGeometry x="501" y="130" width="80" height="30" as="geometry" />
        </mxCell>
        <mxCell id="miqpClpsg9ADyVxYDXDO-8" value="" style="endArrow=classic;html=1;rounded=0;fontSize=12;startSize=8;endSize=8;curved=1;entryX=0;entryY=0.75;entryDx=0;entryDy=0;exitX=0.94;exitY=0.755;exitDx=0;exitDy=0;exitPerimeter=0;" edge="1" parent="1" source="_poDO7g2qyBGz-Z9JkGC-4" target="_poDO7g2qyBGz-Z9JkGC-3">
          <mxGeometry width="50" height="50" relative="1" as="geometry">
            <mxPoint x="500" y="210" as="sourcePoint" />
            <mxPoint x="520" y="220" as="targetPoint" />
          </mxGeometry>
        </mxCell>
        <mxCell id="miqpClpsg9ADyVxYDXDO-9" value="车次车票情况" style="text;html=1;strokeColor=none;fillColor=none;align=center;verticalAlign=middle;whiteSpace=wrap;rounded=0;fontSize=16;" vertex="1" parent="1">
          <mxGeometry x="482" y="173" width="118" height="30" as="geometry" />
        </mxCell>
      </root>
    </mxGraphModel>
  </diagram>
</mxfile>
